<?xml version="1.0" encoding="UTF-8"?>
<svg version="1.1" xmlns="http://www.w3.org/2000/svg" width="515" height="595">
<path d="M0 0 C169.95 0 339.9 0 515 0 C515 196.35 515 392.7 515 595 C345.05 595 175.1 595 0 595 C0 398.65 0 202.3 0 0 Z " fill="#FEFEFD" transform="translate(0,0)"/>
<path d="M0 0 C3.57865471 1.50709906 6.9209512 3.3019806 10.2890625 5.23046875 C11.45779907 5.88934082 11.45779907 5.88934082 12.65014648 6.56152344 C20.17521973 10.8237461 27.63029488 15.20760646 35.09033203 19.58227539 C43.44297969 24.46968699 51.8690699 29.21607076 60.3215332 33.92822266 C69.53871344 39.06803222 78.70484943 44.29321228 87.85888672 49.54443359 C90.62575492 51.12837661 93.39642046 52.70551157 96.16796875 54.28125 C97.10866211 54.81669434 98.04935547 55.35213867 99.01855469 55.90380859 C100.80366112 56.91968957 102.58941901 57.93442709 104.37597656 58.94775391 C105.59559082 59.64263916 105.59559082 59.64263916 106.83984375 60.3515625 C107.54407471 60.75173584 108.24830566 61.15190918 108.97387695 61.56420898 C109.79976318 62.05219971 110.62564941 62.54019043 111.4765625 63.04296875 C112.12199296 63.31471198 112.76742342 63.58645521 113.43241239 63.86643308 C115.85044319 65.03655471 117.58065016 66.12866243 119.4765625 68.04296875 C120.71637702 71.94531408 120.60787817 75.76986142 120.57318115 79.83876038 C120.60460122 81.65169095 120.60460122 81.65169095 120.63665605 83.50124639 C120.68630758 86.85412233 120.70003055 90.2036437 120.69826841 93.55665624 C120.70486537 97.17336681 120.75713889 100.78946763 120.80303955 104.40585327 C120.89441666 112.31312657 120.92611993 120.21997039 120.94634533 128.12770009 C120.95937922 133.06791458 120.98547296 138.00800464 121.01435089 142.94814873 C121.09261915 156.63334289 121.15823085 170.3184214 121.16985703 184.0038538 C121.17098244 185.31738309 121.17098244 185.31738309 121.1721306 186.65744832 C121.17359558 188.43259902 121.17505037 190.20774973 121.17649505 191.98290045 C121.17759191 193.30463743 121.17759191 193.30463743 121.17871094 194.65307617 C121.17943313 195.53531353 121.18015533 196.41755088 121.18089941 197.3265227 C121.19505794 211.61343877 121.3030828 225.89794001 121.45270249 240.18401892 C121.6051816 254.86096531 121.68248797 269.536715 121.68369508 284.2144708 C121.68603075 292.45213611 121.71980097 300.68692291 121.83568573 308.92384529 C121.93395238 315.94068646 121.96275486 322.95360228 121.90269563 329.9709462 C121.87407556 333.54993481 121.87706024 337.12118681 121.96833801 340.69929695 C122.46964898 361.55710795 122.46964898 361.55710795 117.49129963 367.35508037 C112.7175219 371.27505481 107.49029092 373.84278954 101.77456427 376.11034286 C98.9366267 377.26209744 96.37527602 378.739081 93.7734375 380.34765625 C92.25893284 381.20640595 90.7433339 382.06322908 89.2265625 382.91796875 C75.55749621 390.68056841 61.97482436 398.59284454 48.453125 406.609375 C47.47980225 407.18631104 46.50647949 407.76324707 45.50366211 408.35766602 C43.68300067 409.43822882 41.86340329 410.52058768 40.04516602 411.60522461 C34.73262173 414.76091186 29.36119565 417.7783569 23.92138672 420.70947266 C21.72646451 421.9066631 19.56831553 423.14961828 17.4140625 424.41796875 C14.4765625 426.04296875 14.4765625 426.04296875 12.4765625 426.04296875 C12.4765625 328.03296875 12.4765625 230.02296875 12.4765625 129.04296875 C10.8265625 128.38296875 9.1765625 127.72296875 7.4765625 127.04296875 C5.90282972 126.22241415 4.34454795 125.37172444 2.80078125 124.49609375 C1.90335205 123.98844482 1.00592285 123.4807959 0.08129883 122.95776367 C-0.88138916 122.40838135 -1.84407715 121.85899902 -2.8359375 121.29296875 C-3.85212158 120.71587158 -4.86830566 120.13877441 -5.9152832 119.54418945 C-14.04048089 114.9177135 -22.1190791 110.21314731 -30.18676758 105.48730469 C-37.93590279 100.95311025 -45.72253291 96.4871747 -53.5234375 92.04296875 C-63.50896846 86.35364808 -73.45737581 80.60405878 -83.37695312 74.80029297 C-90.73145439 70.49843757 -98.11136679 66.24488208 -105.5234375 62.04296875 C-104.12627078 57.8514686 -101.22572531 56.94449783 -97.5234375 54.98046875 C-96.04342437 54.17212079 -94.56428349 53.36217414 -93.0859375 52.55078125 C-92.32410156 52.13473633 -91.56226563 51.71869141 -90.77734375 51.29003906 C-87.32032015 49.37729247 -83.92137062 47.3707946 -80.5234375 45.35546875 C-79.09520484 44.5114602 -77.66681317 43.66772069 -76.23828125 42.82421875 C-75.48530762 42.37949219 -74.73233398 41.93476562 -73.95654297 41.4765625 C-59.66548317 33.05622303 -45.31880622 24.72798209 -30.93115234 16.47387695 C-25.86996951 13.5680136 -20.82869928 10.63935325 -15.8359375 7.6171875 C-14.52943237 6.83444458 -14.52943237 6.83444458 -13.1965332 6.03588867 C-11.58880729 5.07024247 -9.98782303 4.09324263 -8.39526367 3.1027832 C-3.29257888 0.05606558 -3.29257888 0.05606558 0 0 Z " fill="#40AA1D" transform="translate(395.5234375,80.95703125)"/>
<path d="M0 0 C1.27753431 0.63340053 2.55445443 1.26803992 3.83111572 1.90319824 C4.89784201 2.43312 4.89784201 2.43312 5.98611832 2.97374725 C8.43177982 4.22003042 10.77240533 5.59209383 13.109375 7.03125 C14.01816406 7.588125 14.92695313 8.145 15.86328125 8.71875 C17.29220703 9.60046875 17.29220703 9.60046875 18.75 10.5 C20.80695386 11.76096788 22.86425149 13.02137513 24.921875 14.28125 C25.94603516 14.90902344 26.97019531 15.53679687 28.02539062 16.18359375 C32.33478033 18.81506612 36.66585176 21.40958029 41 24 C50.97435716 29.96974199 60.90070224 36.0171377 70.82666016 42.06689453 C89.11532761 53.20781382 107.42441524 64.31408353 125.8203125 75.27734375 C132.9466603 79.53022584 140.01644323 83.86523997 147.0625 88.25 C155.3396491 93.39871222 163.68854122 98.41189411 172.10180664 103.33496094 C178.00513397 106.79469554 183.84390559 110.34912392 189.66552734 113.94458008 C195.11432868 117.30330452 200.58922735 120.61885695 206.0625 123.9375 C207.26247637 124.6654858 208.46242696 125.39351411 209.66235352 126.12158203 C211.5289772 127.25415164 213.39562637 128.3866791 215.26237488 129.51904297 C219.79814757 132.27043558 224.33292228 135.02346764 228.8671875 137.77734375 C229.50557053 138.1650444 230.14395355 138.55274506 230.80168152 138.95219421 C233.28629065 140.4611431 235.77089702 141.97009652 238.25540161 143.47921753 C239.96055666 144.51491543 241.665823 145.5504301 243.37109375 146.5859375 C244.33974365 147.1742334 245.30839355 147.7625293 246.30639648 148.36865234 C247.19528564 148.90699707 248.0841748 149.4453418 249 150 C249.88107422 150.56654297 250.76214844 151.13308594 251.66992188 151.71679688 C253.98167099 153.24234661 253.98167099 153.24234661 256.91015625 152.9453125 C260.56637109 151.82672338 263.35956203 150.06781587 266.4375 147.875 C267.76843389 146.9580406 269.10054384 146.04278672 270.43359375 145.12890625 C271.16046387 144.62762207 271.88733398 144.12633789 272.63623047 143.60986328 C277.04473053 140.60742067 281.52683497 137.71730907 286 134.8125 C287.9935799 133.51446162 289.98706834 132.21628276 291.98046875 130.91796875 C292.97997559 130.26747559 293.97948242 129.61698242 295.00927734 128.94677734 C302.66787765 123.96149744 310.32101374 118.96782782 317.97412109 113.97412109 C320.04975382 112.61995245 322.12561191 111.26612919 324.20166016 109.91259766 C327.51012894 107.7552853 330.81775282 105.59668461 334.125 103.4375 C335.20434814 102.73326904 336.28369629 102.02903809 337.39575195 101.3034668 C342.69885385 97.83699239 347.98555521 94.34911292 353.2421875 90.8125 C354.21526855 90.15838135 355.18834961 89.5042627 356.19091797 88.83032227 C358.02353329 87.5954651 359.85342445 86.35655257 361.68017578 85.11303711 C362.48696777 84.5691333 363.29375977 84.02522949 364.125 83.46484375 C364.82882812 82.986521 365.53265625 82.50819824 366.2578125 82.01538086 C368 81 368 81 370 81 C370.3509867 97.01160007 370.61518552 113.02194619 370.77718258 129.03646755 C370.85441479 136.47313225 370.95961546 143.90740235 371.1315918 151.3425293 C371.28148585 157.82607501 371.37795684 164.30788687 371.41132742 170.79311711 C371.43082924 174.22564132 371.47634088 177.65320773 371.58595085 181.08413506 C372.18079979 201.99843593 372.18079979 201.99843593 368.54016304 207.00926018 C364.52407225 210.61703081 360.04824393 212.27402963 355 214 C353.23783551 214.96136661 351.49199051 215.95523104 349.78515625 217.01171875 C348.21172138 217.90502793 346.63749333 218.79694142 345.0625 219.6875 C337.49072546 223.99117786 329.95331948 228.34937566 322.4375 232.75 C312.44483796 238.5989264 302.40218564 244.35659588 292.33349609 250.07324219 C286.68616627 253.28507885 281.06999298 256.53810274 275.51171875 259.90234375 C274.00085693 260.81391235 274.00085693 260.81391235 272.45947266 261.74389648 C270.57955285 262.88347707 268.7051441 264.03221815 266.83740234 265.19165039 C266.00547363 265.69559326 265.17354492 266.19953613 264.31640625 266.71875 C263.59912354 267.16154297 262.88184082 267.60433594 262.14282227 268.06054688 C259.5085595 269.21545665 257.85477639 269.34132001 255 269 C252.61010742 267.93701172 252.61010742 267.93701172 250.10546875 266.4296875 C249.16268066 265.87031494 248.21989258 265.31094238 247.24853516 264.73461914 C246.23839355 264.12094482 245.22825195 263.50727051 244.1875 262.875 C242.01187377 261.57916677 239.83608817 260.2836011 237.66015625 258.98828125 C236.55043457 258.3226416 235.44071289 257.65700195 234.29736328 256.97119141 C229.26311769 253.9616772 224.19456964 251.01198346 219.125 248.0625 C217.64785522 247.20072144 217.64785522 247.20072144 216.14086914 246.3215332 C205.54311481 240.14029626 194.91323588 234.01491565 184.28222656 227.89111328 C178.85340058 224.76319852 173.42680719 221.63141552 168 218.5 C165.83334417 217.24998121 163.6666775 215.99998122 161.5 214.75 C131.16666667 197.25 100.83333333 179.75 70.5 162.25 C69.42733887 161.63116943 68.35467773 161.01233887 67.24951172 160.37475586 C65.08442929 159.12564482 62.91939018 157.87645871 60.75439453 156.62719727 C55.31384294 153.48797691 49.87252784 150.35009437 44.4296875 147.21484375 C33.42052845 140.87180209 22.41943375 134.51507256 11.4375 128.125 C9.88361572 127.22285767 9.88361572 127.22285767 8.29833984 126.30249023 C7.35297363 125.75149658 6.40760742 125.20050293 5.43359375 124.6328125 C4.59884521 124.14699707 3.76409668 123.66118164 2.90405273 123.16064453 C1 122 1 122 0 121 C-0.09591199 119.43112365 -0.12187996 117.85792208 -0.12025452 116.28611755 C-0.12231651 114.7568866 -0.12231651 114.7568866 -0.12442017 113.19676208 C-0.12082489 112.068918 -0.11722961 110.94107391 -0.11352539 109.77905273 C-0.11367142 108.59872467 -0.11381744 107.41839661 -0.1139679 106.20230103 C-0.11338895 102.95657892 -0.10835986 99.71089945 -0.10139394 96.46518588 C-0.09515962 93.07656968 -0.09455654 89.68795272 -0.09336853 86.29933167 C-0.09025544 79.87844196 -0.08204236 73.45756919 -0.07201904 67.03668696 C-0.0608572 59.72846175 -0.05534727 52.42023576 -0.05032361 45.11200416 C-0.03985973 30.07465998 -0.02226073 15.03733168 0 0 Z " fill="#40AA1D" transform="translate(0,325)"/>
<path d="M0 0 C2.65527344 1.25244141 2.65527344 1.25244141 5.359375 2.8515625 C6.37918457 3.44783447 7.39899414 4.04410645 8.44970703 4.65844727 C9.53880371 5.30740967 10.62790039 5.95637207 11.75 6.625 C12.90551279 7.30428217 14.06161137 7.98256873 15.21826172 8.65991211 C17.62074891 10.06781594 20.02066241 11.47996691 22.41894531 12.89501953 C27.96272223 16.16057044 33.54658497 19.35663074 39.125 22.5625 C48.56792413 28.00534095 57.98990772 33.483327 67.40087891 38.98120117 C76.58580759 44.34640259 85.7899107 49.67813236 95 55 C91.52018729 57.9118185 88.00341505 60.27402563 84.0546875 62.50390625 C83.49204193 62.82339737 82.92939636 63.14288849 82.34970093 63.47206116 C81.14897467 64.15323507 79.94713195 64.83244419 78.7442627 65.50982666 C76.84516996 66.57929875 74.94906098 67.65389093 73.05371094 68.72998047 C70.52386816 70.16621595 67.99318503 71.6009513 65.46191406 73.03466797 C61.04477357 75.54228299 56.64332384 78.07594278 52.25 80.625 C51.51362305 81.05184082 50.77724609 81.47868164 50.01855469 81.91845703 C45.75538002 84.39257158 41.49794486 86.87643259 37.2421875 89.36328125 C35.20314362 90.55471936 33.16408083 91.74612512 31.125 92.9375 C29.60108643 93.82804077 29.60108643 93.82804077 28.04638672 94.73657227 C21.51083525 98.55045372 14.95249171 102.32149339 8.375 106.0625 C1.31414676 110.0799852 -5.70139973 114.16642593 -12.6875 118.3125 C-23.96410083 125.00389947 -35.31919919 131.55528808 -46.68554688 138.09277344 C-52.12650565 141.22364924 -57.56305248 144.36216542 -63 147.5 C-65.16664498 148.75003758 -67.33331166 150.00003756 -69.5 151.25 C-70.5725 151.86875 -71.645 152.4875 -72.75 153.125 C-82.5 158.75 -82.5 158.75 -85.75170898 160.62597656 C-87.91268988 161.87270256 -90.07365998 163.11944727 -92.23461914 164.36621094 C-97.73818851 167.54145883 -103.24196032 170.71635495 -108.74609375 173.890625 C-114.16834359 177.01778636 -119.59007725 180.14584029 -125.01123047 183.27490234 C-126.94765205 184.39259185 -128.88416943 185.51011541 -130.82080078 186.62744141 C-133.3810579 188.10488915 -135.94064172 189.5834959 -138.5 191.0625 C-139.22243896 191.47918945 -139.94487793 191.89587891 -140.68920898 192.32519531 C-142.03315874 193.10248729 -143.3699303 193.89240108 -144.69719124 194.69785881 C-147 196 -147 196 -149.5563488 197.08712959 C-152.47917517 198.46301697 -154.65754147 199.76357812 -157 202 C-158.48413134 206.39894214 -158.32437109 210.64966914 -158.22705078 215.25732422 C-158.23409864 216.60797487 -158.24554116 217.95860864 -158.2610321 219.30918884 C-158.29056508 222.96469292 -158.25881391 226.61737471 -158.21586847 230.27264929 C-158.18142502 234.09641791 -158.20359105 237.91985323 -158.21969604 241.74368286 C-158.2415984 248.9793947 -158.21275229 256.21397454 -158.165573 263.44952977 C-158.11432591 271.6890064 -158.1198033 279.92814179 -158.12999368 288.16773582 C-158.14968175 305.11223214 -158.09830354 322.05578583 -158 339 C-161.9481931 337.46673576 -165.47511271 335.66043075 -169.12890625 333.5078125 C-169.71069641 333.16621094 -170.29248657 332.82460938 -170.89190674 332.47265625 C-172.78418099 331.36025537 -174.67339224 330.24276843 -176.5625 329.125 C-177.88684091 328.34468227 -179.21130495 327.56457347 -180.53588867 326.78466797 C-188.41307416 322.14187984 -196.27064164 317.46678848 -204.10083008 312.74511719 C-209.31289972 309.60400197 -214.54039895 306.49001689 -219.77734375 303.390625 C-220.81886345 302.77385391 -220.81886345 302.77385391 -221.88142395 302.1446228 C-226.07093279 299.66381303 -226.07093279 299.66381303 -230.2628479 297.18707275 C-230.91321014 296.80323425 -231.56357239 296.41939575 -232.23364258 296.02392578 C-232.84360801 295.66541409 -233.45357344 295.30690239 -234.08202267 294.9375267 C-235.37935675 294.16452846 -236.66931784 293.37888504 -237.94817257 292.57568359 C-241.28760916 290.49528075 -244.485295 288.75047193 -248.18292236 287.39230347 C-252.95481533 285.43369434 -256.92175837 283.24070544 -260 279 C-263.00486645 270.32673492 -262.46587305 260.6759725 -262.4126606 251.59053326 C-262.40404371 248.67550335 -262.44331428 245.76184886 -262.48150396 242.84711671 C-262.57001186 235.96065137 -262.57392934 229.07767563 -262.52539062 222.19091797 C-262.47710429 215.11849409 -262.57538937 208.05881648 -262.74595118 200.98856997 C-262.88760716 194.88887194 -262.93478777 188.79319777 -262.90884924 182.69191861 C-262.89443859 179.05962287 -262.91429862 175.43640902 -263.02656555 171.80562592 C-263.64432016 149.98386661 -263.64432016 149.98386661 -257.67428589 143.45759583 C-251.96479703 138.99966001 -245.72324066 136.04337943 -239.04937744 133.31092072 C-234.30080486 131.26951971 -229.93409897 128.63993871 -225.5 126 C-223.77393107 125.01247977 -222.04626203 124.02774662 -220.31640625 123.046875 C-214.66786911 119.81913949 -209.05216543 116.53619544 -203.4375 113.25 C-194.69595105 108.13574693 -185.92252968 103.07968701 -177.125 98.0625 C-151.68737579 83.67923956 -151.68737579 83.67923956 -126.65234375 68.6171875 C-123.15367699 66.48397978 -119.55753955 64.56139506 -115.9453125 62.62890625 C-111.807797 60.34065165 -107.771957 57.89199142 -103.74072266 55.42211914 C-99.22619897 52.67471612 -94.61363293 50.14158204 -89.96728516 47.62451172 C-84.74569247 44.76582505 -79.59260168 41.78895522 -74.4375 38.8125 C-73.3043335 38.15902588 -72.17116699 37.50555176 -71.00366211 36.83227539 C-63.54973823 32.51778997 -56.17445023 28.09388707 -48.84667969 23.56933594 C-44.36601872 20.81024679 -39.83793135 18.20670448 -35.19140625 15.734375 C-30.46233874 13.16435545 -25.79670307 10.48504907 -21.125 7.8125 C-19.7496106 7.02661499 -19.7496106 7.02661499 -18.34643555 6.22485352 C-13.35994728 3.41077766 -13.35994728 3.41077766 -8.58154297 0.26831055 C-5.20138171 -1.3923607 -3.58483679 -1.02680382 0 0 Z " fill="#40AA1D" transform="translate(260,2)"/>
<path d="M0 0 C17.04508003 9.29731638 34.00112999 18.72941998 50.69873047 28.63818359 C64.285033 36.67811522 77.95202809 44.57178777 91.70776367 52.31787109 C102.71090679 58.51722366 113.63006138 64.85778193 124.53125 71.234375 C135.32304068 77.54502028 146.13852002 83.81018633 157 90 C166.72116309 95.54000518 176.4089467 101.13374816 186.06689453 106.78344727 C193.32211736 111.02617279 200.59354142 115.2399661 207.875 119.4375 C208.94379395 120.05367187 210.01258789 120.66984375 211.11376953 121.3046875 C215.58072422 123.87906931 220.04836421 126.45225923 224.51660156 129.02441406 C226.87346291 130.38115258 229.23006924 131.73833221 231.58642578 133.09594727 C233.79006869 134.36546119 235.99413955 135.63423268 238.19873047 136.90209961 C243.06152044 139.70390394 247.9164981 142.51902214 252.75 145.37109375 C253.56984375 145.85376709 254.3896875 146.33644043 255.234375 146.83374023 C256.10835938 147.41103882 256.10835938 147.41103882 257 148 C257 148.33 257 148.66 257 149 C172.19 149 87.38 149 0 149 C0 99.83 0 50.66 0 0 Z " fill="#FEFEFE" transform="translate(0,446)"/>
<path d="M0 0 C85.47 0 170.94 0 259 0 C259.33 0.66 259.66 1.32 260 2 C259.13608643 1.93506348 258.27217285 1.87012695 257.38208008 1.80322266 C253.38098154 2.03601594 251.32979874 3.12720164 247.88671875 5.1484375 C247.32011032 5.47627731 246.75350189 5.80411713 246.16972351 6.14189148 C244.33491876 7.20746257 242.51140778 8.29090174 240.6875 9.375 C239.41229188 10.12020829 238.13640766 10.86426079 236.85986328 11.60717773 C233.2311375 13.72344213 229.61508615 15.86052389 226 18 C224.43147818 18.92140517 222.86255626 19.84213014 221.29296875 20.76171875 C219.34316836 21.90538358 217.39460092 23.05089007 215.44970703 24.20288086 C210.15170215 27.34001117 204.81672507 30.4105479 199.47729492 33.4765625 C189.85639238 39.00134188 180.2952842 44.59128061 170.85839844 50.42504883 C166.2408502 53.27088496 161.56019213 55.93037407 156.76953125 58.4765625 C152.6865155 60.7225091 148.71259248 63.14439973 144.73950195 65.57861328 C140.23693636 68.31876557 135.6375635 70.84716054 131.00341797 73.35742188 C125.56504293 76.33168519 120.19128178 79.41970225 114.8125 82.5 C114.2070636 82.84626434 113.6016272 83.19252869 112.97784424 83.54928589 C103.60617756 88.90992083 94.26677263 94.32401658 84.94726562 99.77490234 C68.97805687 109.11323361 52.94397445 118.33973965 36.86645508 127.49023438 C32.07238927 130.22467885 27.29842812 132.99069859 22.5390625 135.78515625 C21.45061035 136.42380615 20.3621582 137.06245605 19.24072266 137.72045898 C17.12657022 138.9629257 15.01417776 140.20839346 12.90380859 141.45727539 C11.94555176 142.02051514 10.98729492 142.58375488 10 143.1640625 C9.154375 143.66373535 8.30875 144.1634082 7.4375 144.67822266 C5 146 5 146 0 148 C0 99.16 0 50.32 0 0 Z " fill="#FEFEFE" transform="translate(0,0)"/>
<path d="M0 0 C2.57038206 1.34406571 4.98338933 2.72119042 7.4375 4.25 C8.93484712 5.15848011 10.43362778 6.06460034 11.93359375 6.96875 C12.74038574 7.45601562 13.54717773 7.94328125 14.37841797 8.4453125 C20.14806937 11.86691244 26.02855853 15.09961722 31.89233398 18.35644531 C32.81473877 18.87303711 33.73714355 19.38962891 34.6875 19.921875 C35.49574219 20.37143555 36.30398438 20.82099609 37.13671875 21.28417969 C38.08160156 21.85040039 39.02648437 22.41662109 40 23 C40.72605721 23.34358173 41.45211443 23.68716347 42.20017338 24.04115677 C45.88564586 26.02135189 48.49844875 27.52139047 49.88180351 31.59962082 C50.26725349 34.91849979 50.36461145 38.14290003 50.37084961 41.484375 C50.40750229 42.7404808 50.44415497 43.99658661 50.48191833 45.29075623 C50.57825864 48.72738868 50.61603213 52.1621976 50.6370399 55.60003281 C50.65236908 57.75355809 50.67948804 59.90661468 50.71054268 62.05996704 C50.8177153 69.59114459 50.87404366 77.12092701 50.88745117 84.65283203 C50.90136085 91.64440888 51.03115162 98.62736677 51.21481317 105.61635399 C51.3674473 111.63902716 51.43383688 117.6588746 51.4359799 123.68346596 C51.43888026 127.27336913 51.47557609 130.85461758 51.60114861 134.44250488 C52.31267157 156.09360021 52.31267157 156.09360021 46.83279037 162.55563736 C41.59362265 166.98462707 35.82083072 170.02752616 29.5805912 172.80928421 C26.16964232 174.38313701 23.2093815 176.31478397 20.109375 178.4296875 C19.19671875 179.01621094 18.2840625 179.60273438 17.34375 180.20703125 C15.53443228 181.37055334 13.72730772 182.53748989 11.921875 183.70703125 C11.035 184.27550781 10.148125 184.84398437 9.234375 185.4296875 C8.46319336 185.92710449 7.69201172 186.42452148 6.89746094 186.93701172 C5 188 5 188 3 188 C3 144.44 3 100.88 3 56 C1.35 55.34 -0.3 54.68 -2 54 C-3.94714169 52.9863631 -5.87838041 51.94186411 -7.796875 50.875 C-9.47124634 49.94554565 -9.47124634 49.94554565 -11.17944336 48.99731445 C-12.3698205 48.3318856 -13.56000252 47.66610758 -14.75 47 C-15.3507132 46.66463226 -15.95142639 46.32926453 -16.57034302 45.98373413 C-24.05191496 41.80590461 -31.52512269 37.61214692 -38.9375 33.3125 C-39.60942383 32.92771484 -40.28134766 32.54292969 -40.97363281 32.14648438 C-44.44792263 30.10663446 -47.29990583 27.99784892 -50 25 C-48.65364583 24.20442708 -47.30729167 23.40885417 -45.9609375 22.61328125 C-45.08050781 22.09266113 -44.20007813 21.57204102 -43.29296875 21.03564453 C-41.33071853 19.8768793 -39.36715237 18.72033985 -37.40234375 17.56591797 C-32.18602236 14.49676072 -26.99698776 11.39382736 -21.8515625 8.20703125 C-20.87010254 7.60656982 -19.88864258 7.0061084 -18.87744141 6.38745117 C-16.98858755 5.23051616 -15.10768995 4.06046927 -13.23583984 2.8762207 C-5.16323554 -2.03120408 -5.16323554 -2.03120408 0 0 Z " fill="#3D4647" transform="translate(321,203)"/>
<path d="M0 0 C3.12254089 1.22643122 6.00897179 2.48273795 8.87890625 4.22265625 C9.62011719 4.66955811 10.36132812 5.11645996 11.125 5.5769043 C11.929375 6.06715088 12.73375 6.55739746 13.5625 7.0625 C14.42746094 7.58561768 15.29242188 8.10873535 16.18359375 8.64770508 C19.12472691 10.42798657 22.06239041 12.21391105 25 14 C27.18606005 15.32574819 29.37226269 16.65126128 31.55859375 17.9765625 C36.8894681 21.20911854 42.21772461 24.44596669 47.54502869 27.68440247 C53.44999777 31.2739238 59.35692222 34.86021952 65.26409912 38.44610596 C66.99275952 39.49560418 68.72125787 40.54536877 70.44970703 41.59521484 C75.90247215 44.90695264 81.35637193 48.21678215 86.81390381 51.5206604 C89.3830155 53.07609128 91.95153951 54.63249115 94.52001953 56.18896484 C95.74108057 56.92854406 96.96242736 57.66765176 98.18408203 58.40625 C99.88126393 59.43238721 101.57737081 60.46030179 103.2734375 61.48828125 C104.23685059 62.07134033 105.20026367 62.65439941 106.19287109 63.25512695 C108.22389158 64.51758159 110.2131346 65.84808348 112.1730957 67.21826172 C114.86002972 69.25911206 114.86002972 69.25911206 117.95703125 69.01953125 C121.64079418 67.78530516 124.55548797 65.92221214 127.6875 63.6875 C129.00361659 62.7789399 130.32141046 61.87280603 131.640625 60.96875 C132.68959961 60.24751953 132.68959961 60.24751953 133.75976562 59.51171875 C137.76054925 56.81197461 141.85008648 54.25340058 145.9375 51.6875 C147.10768677 50.95116333 147.10768677 50.95116333 148.30151367 50.19995117 C149.80236986 49.25665193 151.30452545 48.31541631 152.80810547 47.37646484 C154.30249455 46.43801913 155.79090271 45.48999767 157.27392578 44.53369141 C157.98919434 44.07526855 158.70446289 43.6168457 159.44140625 43.14453125 C160.07892822 42.73178955 160.7164502 42.31904785 161.37329102 41.89379883 C163 41 163 41 165 41 C165.51044845 48.32522466 165.85851308 55.64584392 166.09863281 62.98486328 C166.19875054 65.47521107 166.33492279 67.96439596 166.50878906 70.45068359 C167.87317756 90.47509124 167.87317756 90.47509124 163.19598389 96.21322632 C158.48531735 100.10418242 153.14905563 102.52829378 147.54663086 104.87554932 C143.9595508 106.45940455 140.80973845 108.51733632 137.5703125 110.70703125 C136.48878906 111.39474609 135.40726563 112.08246094 134.29296875 112.79101562 C132.11906947 114.17818317 129.95274992 115.5772798 127.79296875 116.98632812 C126.19775391 117.99276367 126.19775391 117.99276367 124.5703125 119.01953125 C123.63977051 119.61870361 122.70922852 120.21787598 121.75048828 120.83520508 C118.33491961 122.28165263 116.5349514 121.9842747 113 121 C110.70757299 119.73843507 108.60196562 118.45118899 106.4375 117 C98.84013554 112.08217738 91.07166354 107.48609541 83.25 102.9375 C73.14974994 97.05280117 63.10778455 91.0819095 53.125 85 C52.53040985 84.63778351 51.9358197 84.27556702 51.32321167 83.90237427 C48.5087612 82.18735548 45.69492257 80.47133779 42.88134766 78.75488281 C39.92707189 76.95558318 36.97133826 75.15953885 33.99584961 73.39550781 C32.30845122 72.37254548 30.66166725 71.28357266 29.015625 70.1953125 C25.67432203 68.1498007 22.2866651 67.12996566 18.546875 65.9921875 C11.1526001 63.31055946 3.55506847 60.53122905 0 53 C-4.08323427 36.19523081 -1.5001549 17.04244001 0 0 Z " fill="#3E4748" transform="translate(139,311)"/>
<path d="M0 0 C0.82371094 0.53367188 1.64742188 1.06734375 2.49609375 1.6171875 C3.89119939 2.3617457 5.29009751 3.09921445 6.69140625 3.83203125 C8.33660079 4.73601565 9.97972223 5.64378003 11.62109375 6.5546875 C12.48895508 7.03397705 13.35681641 7.5132666 14.25097656 8.00708008 C23.4055684 13.08406276 32.46229913 18.32892408 41.49609375 23.6171875 C38.0243121 27.59659258 34.02150077 29.73188624 29.43359375 32.1796875 C27.79867399 33.07013782 26.16458447 33.96211389 24.53125 34.85546875 C23.69352051 35.31260254 22.85579102 35.76973633 21.99267578 36.24072266 C18.0865993 38.39429778 14.22689677 40.62515507 10.37109375 42.8671875 C9.5939502 43.31868164 8.81680664 43.77017578 8.01611328 44.23535156 C5.50839866 45.69418333 3.00211947 47.15545656 0.49609375 48.6171875 C-1.40104008 49.72265897 -3.29817556 50.82812762 -5.1953125 51.93359375 C-13.34302651 56.68335816 -21.4880077 61.43778208 -29.62890625 66.19921875 C-30.64509033 66.79307373 -31.66127441 67.38692871 -32.70825195 67.9987793 C-34.58749667 69.09704319 -36.46630266 70.19605846 -38.34448242 71.29614258 C-39.23627197 71.81716553 -40.12806152 72.33818848 -41.046875 72.875 C-41.99328857 73.46410156 -42.93970215 74.05320312 -43.91479492 74.66015625 C-46.78790717 76.34927222 -49.73075814 77.4784022 -52.8527832 78.63671875 C-58.83239558 81.07590877 -64.34004996 83.5298522 -68.50390625 88.6171875 C-71.8224747 97.64697392 -70.8877788 107.78477693 -70.40942383 117.25488281 C-70.2535923 120.79360816 -70.21922125 124.33344118 -70.17382812 127.875 C-70.06761479 134.79475877 -69.82907708 141.70434277 -69.50390625 148.6171875 C-73.39224334 147.1071512 -76.853307 145.3404874 -80.44140625 143.203125 C-81.00279297 142.86979156 -81.56417969 142.53645813 -82.14257812 142.19302368 C-83.93169275 141.12940569 -85.71775801 140.06077768 -87.50390625 138.9921875 C-89.25391132 137.95170962 -91.004419 136.91216188 -92.75714111 135.87626648 C-93.92813423 135.17361537 -95.09060031 134.45656753 -96.24432373 133.72590637 C-99.24646106 131.84188306 -101.82764559 130.5046538 -105.21582031 129.3269043 C-109.22138189 127.72121236 -112.2551177 126.34864619 -114.50390625 122.6171875 C-116.74651793 114.54697986 -116.46724597 106.03640975 -116.30859375 97.7277832 C-116.24567997 94.35538085 -116.31037356 90.99898475 -116.40748405 87.62791634 C-116.8932544 68.0866789 -116.8932544 68.0866789 -113.09625244 62.57318115 C-109.65586914 59.4001617 -105.75243419 57.73183624 -101.35375977 56.26412964 C-98.8539655 55.38988623 -96.71191989 54.10013858 -94.46484375 52.7109375 C-92.93687431 51.84515935 -91.40821488 50.98059791 -89.87890625 50.1171875 C-81.31482748 45.25256044 -72.80724554 40.29553638 -64.31640625 35.3046875 C-52.79315358 28.53361742 -41.24611192 21.80723343 -29.6484375 15.1640625 C-25.53382225 12.80318568 -21.45311792 10.39472787 -17.390625 7.9453125 C-16.42769531 7.37272705 -15.46476562 6.8001416 -14.47265625 6.21020508 C-12.66827557 5.13616142 -10.87207405 4.04820938 -9.0859375 2.9440918 C-3.25386123 -0.4974702 -3.25386123 -0.4974702 0 0 Z " fill="#3E4748" transform="translate(253.50390625,164.3828125)"/>
</svg>
